# xmcd
#
# Track frame offsets:
#	150
#	12714
#	26280
#	40391
#	53828
#	66210
#	78696
#	91309
#	100953
#	114648
#	128251
#	142629
#	158569
#	171268
#	184807
#	199348
#	215093
#	228397
#	241979
#	266089
#	281513
#	294836
#
# Disc length: 4126 seconds
#
# Revision: 1
# Processed by: cddbd v1.5.1PL0 Copyright (c) Steve Scherf et al.
# Submitted via: audiograbber 1.83.01
#
DISCID=37101c16
DTITLE=John Lee Hooker - The Roots Of John Lee Hooker
DYEAR=2000
DGENRE=Blues
TTITLE0=Baby, Please Don't Go (Big Joe Williams)
TTITLE1=Someday Baby (John Estes)
TTITLE2=Mama Don't Allow (Arthur Crudup)
TTITLE3=Crawling Kingsnake (Tony Hollins)
TTITLE4=Jack O'Diamonds (Blind Lemon Jefferson)
TTITLE5=I Wonder (Cecil Gant)
TTITLE6=Bottle It Up And Go (Tommy McClennan)
TTITLE7=Old Blind Barnabus (Golden Gate Quartet)
TTITLE8=Key to The Highway (Big Bill Broonzy)
TTITLE9=Ezekial Saw The Wheel (Norfolk Jazz And Jubilee)
TTITLE10=Grinder Man (Memphis Slim)
TTITLE11=Blues Before Sunrise (Leroy Carr)
TTITLE12=Dealin' With The Devil (Sonny Boy Williamson)
TTITLE13=Matchbox Blues (Blind Lemon Jefferson)
TTITLE14=T.B. Blues (Victoria Spivey)
TTITLE15=Decoration Day (Sonny Boy Williamson)
TTITLE16=New Sugar Mama (Tommy McClennan)
TTITLE17=Terraplane Blues (Robert Johnson)
TTITLE18=Driftin' Blues (Charles Brown)
TTITLE19=Cool Drink Of Water (Tommy Johnson)
TTITLE20=I Cover The Waterfront (Billie Holiday)
TTITLE21=Sail On Little Girl (Leadbelly)
EXTD=Catfish Records (England)
EXTT0=
EXTT1=
EXTT2=
EXTT3=
EXTT4=
EXTT5=
EXTT6=
EXTT7=
EXTT8=
EXTT9=
EXTT10=
EXTT11=
EXTT12=
EXTT13=
EXTT14=
EXTT15=
EXTT16=
EXTT17=
EXTT18=
EXTT19=
EXTT20=
EXTT21=
PLAYORDER=
